<?xml version="1.0" encoding="UTF-8" standalone="no"?>
<!-- Created with Inkscape (http://www.inkscape.org/) -->

<svg
   width="92.664108mm"
   height="127.84698mm"
   viewBox="0 0 92.664108 127.84698"
   version="1.1"
   id="svg1"
   xml:space="preserve"
   xmlns="http://www.w3.org/2000/svg"
   xmlns:svg="http://www.w3.org/2000/svg"><defs
     id="defs1" /><g
     style="stroke-linecap:round;stroke-linejoin:round"
     id="g1"
     transform="matrix(5.7114236,0,0,5.7114236,-14.151046,6.2579792)"><path
       d="m 10.589847,-1.0956955 c -3.4408789,0 -6.2500233,2.8091447 -6.2500233,6.2500232 v 2.34567 H 6.839851 v -2.34567 c 0,-2.0991216 1.650874,-3.7499958 3.749996,-3.7499958 2.099121,0 3.749996,1.6508742 3.749996,3.7499958 v 2.34567 h 2.500027 v -2.34567 c 0,-3.4408785 -2.809145,-6.2500232 -6.250023,-6.2500232 z"
       style="fill:#2AEA73;stroke-linecap:butt;stroke-linejoin:miter"
       id="path26" /><path
       id="path25"
       style="baseline-shift:baseline;display:inline;overflow:visible;vector-effect:none;fill:#2AEA73;stroke-linecap:butt;stroke-linejoin:miter;enable-background:accumulate;stop-color:#000000;stop-opacity:1"
       d="m 3.8297931,7.3711555 c -0.7490224,0 -1.3521193,0.6207128 -1.3521193,1.3917492 V 19.896988 c 0,0.771036 0.6030969,1.39175 1.3521193,1.39175 H 17.349991 c 0.749022,0 1.352029,-0.620714 1.352029,-1.39175 V 8.7629047 c 0,-0.7710364 -0.603007,-1.3917492 -1.352029,-1.3917492 z m 8.7561129,2.9785715 c 0.01365,-2.45e-4 0.02759,6.13e-4 0.04144,0.0027 0.04781,0.0073 0.29676,0.162495 0.954012,0.59481 0.489123,0.321728 0.905875,0.606513 0.926143,0.63272 0.04372,0.05653 0.06102,0.161128 0.039,0.236241 -0.01123,0.03828 -0.226931,0.274087 -0.742743,0.811778 -0.399802,0.416759 -0.745645,0.772987 -0.768529,0.791692 -0.05958,0.04868 -0.184069,0.061 -0.258589,0.0257 -0.123924,-0.05872 -0.130872,-0.07878 -0.190549,-0.556627 l -0.05338,-0.427695 -0.2889,0.03248 c -0.333255,0.03745 -0.411865,0.0615 -0.607205,0.185934 -0.200554,0.127769 -0.301346,0.265627 -0.501797,0.686103 -0.09037,0.189568 -0.165874,0.344647 -0.167748,0.344997 -0.0019,2.43e-4 -0.15878,-0.195042 -0.348435,-0.434028 -0.189653,-0.238983 -0.350932,-0.442576 -0.358478,-0.452486 -0.0078,-0.01026 0.02771,-0.09973 0.08252,-0.208011 0.216428,-0.427589 0.57967,-0.778229 1.00278,-0.967674 0.249331,-0.111633 0.449951,-0.161139 0.822545,-0.203216 l 0.24746,-0.02805 -0.04289,-0.428689 c -0.0407,-0.407377 -0.04128,-0.431722 -0.01357,-0.489764 0.04357,-0.09128 0.131366,-0.147528 0.226922,-0.148928 z m -4.6230287,1.599851 h 9.05e-5 c 0.1185505,0.0032 0.2123021,0.01764 0.3323296,0.04162 0.3698541,0.07388 0.7234437,0.256663 1.0035035,0.518717 0.076881,0.07194 0.4971346,0.588332 1.1888041,1.460965 0.955657,1.205687 1.083521,1.360607 1.198034,1.451013 0.130619,0.103127 0.264326,0.166671 0.441357,0.209731 0.0842,0.02046 0.14482,0.01972 0.428056,-0.0058 l 0.329797,-0.02977 -0.04298,-0.430408 c -0.04084,-0.409068 -0.04146,-0.433426 -0.01375,-0.491483 0.0498,-0.104328 0.157623,-0.163002 0.268452,-0.146124 0.04781,0.0073 0.296671,0.162405 0.953921,0.594719 0.489125,0.321729 0.905964,0.606512 0.926234,0.632721 0.04372,0.05653 0.06093,0.161128 0.03891,0.23624 -0.01123,0.03828 -0.226928,0.274086 -0.742743,0.811779 -0.399802,0.416757 -0.743944,0.771232 -0.76482,0.78762 -0.04826,0.03795 -0.137831,0.06202 -0.192901,0.05185 -0.07096,-0.01308 -0.11984,-0.04244 -0.164219,-0.09826 -0.04016,-0.05051 -0.04473,-0.07348 -0.09527,-0.478182 l -0.05311,-0.42507 -0.346535,0.02895 c -0.469743,0.03943 -0.709556,0.01556 -1.034719,-0.103056 -0.274371,-0.100087 -0.526713,-0.254598 -0.723923,-0.443166 -0.06085,-0.05819 -0.592375,-0.713044 -1.1812946,-1.455356 -1.2083932,-1.523134 -1.1933703,-1.506771 -1.4757138,-1.607723 -0.251619,-0.08997 -0.2465367,-0.08996 -1.1565035,0.0123 l -0.8120497,0.09129 -0.058721,-0.522065 -0.05863,-0.521883 0.7707008,-0.08641 c 0.5731567,-0.0643 0.8400291,-0.09014 1.0377045,-0.08478 z m 1.2831743,2.990062 c 0.00706,0.0065 0.1584245,0.19609 0.3364012,0.421361 0.1779777,0.225275 0.3348365,0.423317 0.3486159,0.44009 0.022401,0.02723 0.016701,0.04715 -0.053654,0.187654 -0.1895825,0.378599 -0.4224825,0.642394 -0.7593004,0.860003 -0.1557125,0.100602 -0.2858195,0.162249 -0.4937444,0.233979 -0.1366792,0.04715 -0.2111285,0.05855 -1.0151752,0.155534 L 6.7414098,17.343035 6.6826889,16.820519 6.6240584,16.298002 7.475557,16.196847 C 8.3042112,16.0985 8.3296747,16.094524 8.4174442,16.049637 8.721301,15.894243 8.8398108,15.752996 9.0684411,15.273417 9.159049,15.083354 9.238978,14.933144 9.2460516,14.93964 Z" /></g></svg>
