<?xml version="1.0" encoding="UTF-8" standalone="no"?>
<!-- Created with Inkscape (http://www.inkscape.org/) -->

<svg
  width="459.02344"
  height="459.02344"
  viewBox="0 0 121.44995 121.44995"
  xml:space="preserve"
  xmlns="http://www.w3.org/2000/svg"
  xmlns:svg="http://www.w3.org/2000/svg">

  <style>
    :root {
      fill: #000000;
    }
  </style>

  <g id="shufflefy-logo" transform="translate(-5.4208577,-5.4208577)">
    <path
      d="M 66.145833,5.4208577 A 60.724907,60.724907 0 0 0 5.4208577,66.145833 60.724907,60.724907 0 0 0 66.145833,126.87081 60.724907,60.724907 0 0 0 126.87081,66.145833 60.724907,60.724907 0 0 0 66.145833,5.4208577 Z M 82.451815,36.347652 c 0.111509,-0.0016 0.224276,0.006 0.337447,0.02326 0.390519,0.05947 2.42432,1.32709 7.793323,4.858618 3.99559,2.628146 7.399881,4.953559 7.565429,5.167643 0.357139,0.461826 0.498178,1.317032 0.318327,1.930631 -0.09166,0.312716 -1.853709,2.238274 -6.06733,6.630604 -3.265937,3.404453 -6.090685,6.315056 -6.277653,6.467822 -0.486726,0.397693 -1.503236,0.498749 -2.112016,0.210323 -1.012309,-0.479662 -1.069017,-0.644543 -1.556494,-4.548043 l -0.436149,-3.49281 -2.360062,0.2651 c -2.722318,0.305937 -3.3642,0.502745 -4.959904,1.519287 -1.638324,1.043692 -2.462022,2.169488 -4.099492,5.604309 -0.738243,1.548563 -1.354893,2.816684 -1.370459,2.818433 -0.01556,0.0017 -1.296029,-1.593805 -2.845304,-3.546037 -1.549271,-1.952232 -2.867369,-3.615573 -2.92902,-3.696415 -0.06386,-0.08376 0.226145,-0.815097 0.67386,-1.699638 1.767959,-3.49291 4.735919,-6.356361 8.192265,-7.90391 2.036757,-0.91194 3.674274,-1.316647 6.717936,-1.660364 l 2.022099,-0.22841 -0.349849,-3.502112 c -0.332473,-3.32781 -0.337925,-3.527184 -0.111621,-4.001306 0.355941,-0.745716 1.0741,-1.205966 1.854667,-1.21698 z m -37.76462,13.069487 c 0.968918,0.0262 1.734239,0.144113 2.71508,0.340031 3.021288,0.60349 5.910176,2.096796 8.197949,4.237467 0.628048,0.587665 4.060878,4.806248 9.711035,11.934672 7.806651,9.849128 8.851561,11.114491 9.786999,11.853023 1.067014,0.842408 2.159319,1.361336 3.605465,1.713074 0.687819,0.167292 1.18219,0.160941 3.495911,-0.04754 l 2.694926,-0.242879 -0.3514,-3.516065 C 84.209235,72.3473 84.20362,72.14793 84.429989,71.673663 c 0.406791,-0.852241 1.287264,-1.331082 2.192631,-1.193209 0.390519,0.05947 2.423804,1.327097 7.792806,4.858619 3.995591,2.628151 7.400394,4.953562 7.565944,5.167643 0.35714,0.461824 0.49818,1.317037 0.31833,1.930631 -0.0917,0.312723 -1.85372,2.238267 -6.067331,6.630603 -3.265937,3.40445 -6.077739,6.299711 -6.248197,6.433716 C 89.589939,95.81159 88.858419,96.0083 88.408557,95.925411 87.828883,95.81861 87.429571,95.579925 87.067037,95.12391 86.739015,94.711301 86.701711,94.523148 86.28879,91.217171 L 85.854708,87.743998 83.02439,87.981193 C 79.187121,88.303316 77.227873,88.108327 74.571676,87.139384 72.330352,86.321777 70.2688,85.059855 68.657825,83.51945 68.160717,83.044122 63.818062,77.694094 59.007251,71.630253 49.136024,59.187966 49.25963,59.322406 46.953206,58.497721 44.89775,57.762773 44.939647,57.762601 37.506238,58.597974 l -6.634221,0.745174 -0.47904,-4.263823 -0.479041,-4.263305 6.29574,-0.706417 c 4.682809,-0.525441 6.862655,-0.736123 8.477519,-0.692464 z m 10.481014,24.425382 c 0.0577,0.05299 1.294269,1.601952 2.748152,3.442167 1.453883,1.840224 2.735776,3.457695 2.848405,3.594613 0.182992,0.222466 0.136018,0.385463 -0.438732,1.53324 -1.548688,3.092731 -3.450793,5.247282 -6.202206,7.024894 -1.272018,0.821818 -2.335371,1.325561 -4.033862,1.911511 -1.116535,0.385172 -1.725389,0.478429 -8.293551,1.270724 l -7.088456,0.855245 -0.479557,-4.267957 -0.479558,-4.268473 6.956682,-0.82579 c 6.769179,-0.803394 6.977117,-0.835855 7.694104,-1.20251 2.482164,-1.269424 3.449862,-2.423613 5.317505,-6.341215 0.740176,-1.552594 1.39338,-2.779437 1.451074,-2.726449 z"/>
  </g>
</svg>
